#!OML:ASF G:\JayActor3\Patient Classification 1\Patient 1\Session 6\male.ASF
:FULLY-SPECIFIED
:DEGREES
2747
root 7.44487 15.3379 -21.042 199.472 -61.3697 -184.608
lowerback 35.4522 -0.60722 2.8632
upperback 15.2176 -2.62493 -1.51872
thorax -1.25218 -2.09599 -2.23625
lowerneck -3.11512 2.71757 2.62534
upperneck -33.205 1.26006 -1.91742
head -10.0178 -0.733339 -1.02696
rclavicle -3.04141e-014 2.76808e-014
rhumerus 23.4358 23.9803 -23.1054
rradius 124.064
rwrist -55.4028
rhand -43.239 -12.5735
rfingers 7.12502
rthumb -16.0885 -41.9256
lclavicle -3.04141e-014 2.76808e-014
lhumerus -9.0441 -9.89083 66.3977
lradius 64.5575
lwrist 28.7455
lhand -18.4802 9.79405
lfingers 7.12502
lthumb 7.8069 39.6299
rfemur -53.85 -7.21267 23.6991
rtibia 63.5751
rfoot -27.2202 -19.9646
rtoes -3.88647
lfemur -52.5163 11.9063 -25.6127
ltibia 53.7503
lfoot -14.3059 0.48142
ltoes 0.154944
2748
root 7.43802 15.335 -21.0272 199.269 -61.339 -184.481
lowerback 35.4438 -0.568898 2.80547
upperback 15.2305 -2.60116 -1.53378
thorax -1.234 -2.08829 -2.23007
lowerneck -3.12694 2.7387 2.59012
upperneck -33.1738 1.29569 -1.90545
head -10.0032 -0.710534 -1.01925
rclavicle -2.32578e-014 4.29375e-014
rhumerus 23.4729 24.1024 -23.192
rradius 123.994
rwrist -55.3272
rhand -43.2155 -12.5415
rfingers 7.12502
rthumb -16.0658 -41.8954
lclavicle -2.32578e-014 4.29375e-014
lhumerus -9.09097 -9.79658 66.4139
lradius 64.7109
lwrist 28.8522
lhand -18.3972 9.90074
lfingers 7.12502
lthumb 7.88702 39.7336
rfemur -53.7648 -7.28269 23.7002
rtibia 63.5867
rfoot -27.1912 -19.862
rtoes -3.88874
lfemur -52.3605 11.9302 -25.6227
ltibia 53.6946
lfoot -14.4889 0.599722
ltoes 0.304883
2749
root 7.43284 15.3312 -21.013 199.137 -61.3277 -184.398
lowerback 35.4113 -0.519486 2.76712
upperback 15.2438 -2.5567 -1.57543
thorax -1.20808 -2.06691 -2.26915
lowerneck -3.16705 2.74133 2.66031
upperneck -33.1339 1.30531 -1.90745
head -9.97958 -0.711716 -1.03295
rclavicle -7.07673e-014 -1.09232e-013
rhumerus 23.3947 24.1697 -23.3573
rradius 123.933
rwrist -55.255
rhand -43.1813 -12.5094
rfingers 7.12502
rthumb -16.0329 -41.866
lclavicle -7.07673e-014 -1.09232e-013
lhumerus -9.08251 -9.81985 66.3776
lradius 64.8627
lwrist 28.9699
lhand -18.3173 10.0076
lfingers 7.12502
lthumb 7.96411 39.8376
rfemur -53.7324 -7.36096 23.6923
rtibia 63.619
rfoot -27.1567 -19.778
rtoes -3.92995
lfemur -52.2877 11.9258 -25.6492
ltibia 53.6895
lfoot -14.6186 0.704658
ltoes 0.428024
2750
root 7.42993 15.3261 -20.9992 199.052 -61.354 -184.331
lowerback 35.3604 -0.469985 2.76043
upperback 15.252 -2.49929 -1.63001
thorax -1.18209 -2.03544 -2.34283
lowerneck -3.20602 2.72531 2.8165
upperneck -33.1059 1.28679 -1.92726
head -9.96046 -0.735502 -1.06609
rclavicle 6.2816e-014 7.67309e-014
rhumerus 23.2025 24.2147 -23.6012
rradius 123.89
rwrist -55.1639
rhand -43.1529 -12.4435
rfingers 7.12502
rthumb -16.0056 -41.8023
lclavicle 6.2816e-014 7.67309e-014
lhumerus -9.02782 -9.94589 66.3021
lradius 65.0026
lwrist 29.085
lhand -18.2562 10.0961
lfingers 7.12502
lthumb 8.02305 39.9238
rfemur -53.7546 -7.45475 23.6959
rtibia 63.671
rfoot -27.1232 -19.7169
rtoes -3.99663
lfemur -52.3004 11.8854 -25.671
ltibia 53.7333
lfoot -14.6969 0.780741
ltoes 0.538766
2751
root 7.42863 15.32 -20.9862 198.99 -61.4018 -184.264
lowerback 35.3002 -0.41133 2.77877
upperback 15.2627 -2.42254 -1.69703
thorax -1.14989 -1.99198 -2.44911
lowerneck -3.25392 2.69571 3.05873
upperneck -33.0933 1.2435 -1.97347
head -9.9454 -0.780162 -1.12188
rclavicle -4.77083e-015 2.65378e-014
rhumerus 22.9441 24.1786 -23.8777
rradius 123.851
rwrist -55.1167
rhand -43.1262 -12.3704
rfingers 7.12502
rthumb -15.9799 -41.7313
lclavicle -4.77083e-015 2.65378e-014
lhumerus -8.91961 -10.1709 66.1855
lradius 65.1289
lwrist 29.1917
lhand -18.2175 10.157
lfingers 7.12502
lthumb 8.06042 39.9833
rfemur -53.8133 -7.54666 23.7123
rtibia 63.7388
rfoot -27.1045 -19.674
rtoes -4.04987
lfemur -52.3703 11.8255 -25.6791
ltibia 53.8137
lfoot -14.7476 0.824091
ltoes 0.683775
2752
root 7.42888 15.3134 -20.9732 198.907 -61.4814 -184.159
lowerback 35.2428 -0.356465 2.83636
upperback 15.2714 -2.33682 -1.76159
thorax -1.1205 -1.94171 -2.57609
lowerneck -3.29002 2.65869 3.34806
upperneck -33.1052 1.18347 -2.04542
head -9.94187 -0.837083 -1.19403
rclavicle 2.8625e-014 -5.97348e-014
rhumerus 22.6038 24.1614 -24.2129
rradius 123.83
rwrist -55.0158
rhand -43.1019 -12.3018
rfingers 7.12502
rthumb -15.9565 -41.6645
lclavicle 2.8625e-014 -5.97348e-014
lhumerus -8.78085 -10.4599 66.0522
lradius 65.2365
lwrist 29.2769
lhand -18.2078 10.1809
lfingers 7.12502
lthumb 8.06975 40.0068
rfemur -53.8914 -7.65011 23.763
rtibia 63.8127
rfoot -27.1113 -19.635
rtoes -4.0531
lfemur -52.4762 11.7461 -25.6539
ltibia 53.9163
lfoot -14.7851 0.841358
ltoes 0.827019
2753
root 7.43038 15.3065 -20.9604 198.828 -61.5792 -184.037
lowerback 35.1793 -0.306239 2.89183
upperback 15.2758 -2.25516 -1.8102
thorax -1.0927 -1.89375 -2.68399
lowerneck -3.31454 2.62639 3.62509
upperneck -33.1356 1.1242 -2.13276
head -9.94773 -0.891607 -1.26967
rclavicle -3.97569e-015 6.36111e-015
rhumerus 22.29 24.1226 -24.5135
rradius 123.815
rwrist -54.941
rhand -43.0787 -12.2076
rfingers 7.12502
rthumb -15.9342 -41.5722
lclavicle -3.97569e-015 6.36111e-015
lhumerus -8.64448 -10.7397 65.9307
lradius 65.3329
lwrist 29.3491
lhand -18.1864 10.2012
lfingers 7.12502
lthumb 8.09039 40.0263
rfemur -53.9952 -7.75936 23.8342
rtibia 63.8876
rfoot -27.1354 -19.5983
rtoes -4.00839
lfemur -52.6108 11.6535 -25.6145
ltibia 54.0242
lfoot -14.8215 0.844938
ltoes 0.989334
2754
root 7.43238 15.3003 -20.9473 198.721 -61.691 -183.881
lowerback 35.1229 -0.26987 2.9411
upperback 15.2734 -2.19009 -1.83231
thorax -1.07392 -1.85542 -2.75522
lowerneck -3.30932 2.60697 3.83882
upperneck -33.1839 1.08018 -2.22438
head -9.96594 -0.931064 -1.33709
rclavicle 1.80894e-014 2.38542e-014
rhumerus 22.0685 24.0674 -24.7249
rradius 123.799
rwrist -54.914
rhand -43.0544 -12.1649
rfingers 7.12502
rthumb -15.9107 -41.5313
lclavicle 1.80894e-014 2.38542e-014
lhumerus -8.54911 -10.9626 65.8466
lradius 65.4226
lwrist 29.4025
lhand -18.1691 10.2167
lfingers 7.12502
lthumb 8.10711 40.0412
rfemur -54.0973 -7.88095 23.9308
rtibia 63.9527
rfoot -27.1679 -19.5578
rtoes -3.9335
lfemur -52.7437 11.556 -25.5562
ltibia 54.1235
lfoot -14.8649 0.849975
ltoes 1.13771
2755
root 7.43415 15.295 -20.9339 198.592 -61.7989 -183.705
lowerback 35.0745 -0.24274 2.96985
upperback 15.2689 -2.14213 -1.83275
thorax -1.05981 -1.82799 -2.78725
lowerneck -3.28579 2.60308 3.97388
upperneck -33.2396 1.05758 -2.30856
head -9.99031 -0.951527 -1.38975
rclavicle 5.82439e-014 2.29596e-014
rhumerus 21.9236 24.0488 -24.8757
rradius 123.784
rwrist -54.8761
rhand -43.0334 -12.0761
rfingers 7.12502
rthumb -15.8905 -41.4441
lclavicle 5.82439e-014 2.29596e-014
lhumerus -8.5028 -11.1177 65.8003
lradius 65.5048
lwrist 29.4334
lhand -18.1665 10.2155
lfingers 7.12502
lthumb 8.10965 40.0399
rfemur -54.1847 -8.00604 24.0378
rtibia 64.0031
rfoot -27.1913 -19.5156
rtoes -3.86406
lfemur -52.8564 11.4662 -25.4921
ltibia 54.2035
lfoot -14.9158 0.866745
ltoes 1.27534
2756
root 7.43513 15.2912 -20.9203 198.447 -61.8941 -183.526
lowerback 35.0388 -0.226391 2.9604
upperback 15.2623 -2.119 -1.80923
thorax -1.05222 -1.81654 -2.76585
lowerneck -3.24085 2.61564 4.00007
upperneck -33.2968 1.06113 -2.36966
head -10.0192 -0.948157 -1.41708
rclavicle 5.88403e-014 1.16687e-013
rhumerus 21.911 24.0357 -24.9198
rradius 123.765
rwrist -54.8886
rhand -43.0267 -12.0365
rfingers 7.12502
rthumb -15.8841 -41.405
lclavicle 5.88403e-014 1.16687e-013
lhumerus -8.52625 -11.1765 65.8041
lradius 65.5805
lwrist 29.4374
lhand -18.1725 10.2001
lfingers 7.12502
lthumb 8.10383 40.0247
rfemur -54.2452 -8.1358 24.1405
rtibia 64.0347
rfoot -27.1979 -19.4663
rtoes -3.81013
lfemur -52.9337 11.3882 -25.4341
ltibia 54.259
lfoot -14.9737 0.897209
ltoes 1.42101
2757
root 7.43478 15.2888 -20.9064 198.294 -61.9635 -183.366
lowerback 35.0253 -0.206859 2.94398
upperback 15.2636 -2.09796 -1.79645
thorax -1.04406 -1.8072 -2.75095
lowerneck -3.20137 2.63028 4.01128
upperneck -33.3446 1.07019 -2.42087
head -10.0436 -0.940816 -1.43864
rclavicle -5.4467e-014 -7.99114e-014
rhumerus 21.9335 23.9988 -24.9365
rradius 123.737
rwrist -54.9183
rhand -43.0228 -12.0456
rfingers 7.12502
rthumb -15.8803 -41.4144
lclavicle -5.4467e-014 -7.99114e-014
lhumerus -8.56272 -11.2278 65.8071
lradius 65.641
lwrist 29.4245
lhand -18.1975 10.1749
lfingers 7.12502
lthumb 8.07971 40.0005
rfemur -54.2647 -8.26671 24.2224
rtibia 64.048
rfoot -27.1832 -19.4034
rtoes -3.78106
lfemur -52.9574 11.3271 -25.3911
ltibia 54.2882
lfoot -15.0407 0.943357
ltoes 1.5761
2758
root 7.43305 15.2878 -20.8921 198.115 -62.0124 -183.207
lowerback 35.025 -0.185442 2.94206
upperback 15.2798 -2.07541 -1.80023
thorax -1.02504 -1.79686 -2.76159
lowerneck -3.1657 2.63955 4.02798
upperneck -33.3892 1.07529 -2.45929
head -10.0664 -0.937248 -1.45627
rclavicle 4.37326e-015 1.18277e-014
rhumerus 21.9475 23.9528 -24.975
rradius 123.705
rwrist -54.9243
rhand -43.0265 -12.1013
rfingers 7.12502
rthumb -15.8839 -41.4698
lclavicle 4.37326e-015 1.18277e-014
lhumerus -8.59392 -11.2903 65.7954
lradius 65.687
lwrist 29.4044
lhand -18.2297 10.1538
lfingers 7.12502
lthumb 8.04866 39.9805
rfemur -54.2414 -8.39751 24.2909
rtibia 64.0448
rfoot -27.1501 -19.3294
rtoes -3.78215
lfemur -52.9311 11.2817 -25.3523
ltibia 54.2968
lfoot -15.1117 0.996817
ltoes 1.73141
2759
root 7.43032 15.2876 -20.878 197.946 -62.0408 -183.074
lowerback 35.0248 -0.157688 2.93665
upperback 15.31 -2.05056 -1.8206
thorax -0.991481 -1.78562 -2.78893
lowerneck -3.13634 2.64499 4.05811
upperneck -33.4303 1.07711 -2.49144
head -10.0868 -0.937529 -1.47372
rclavicle 1.63003e-014 -4.54223e-014
rhumerus 21.9773 23.8657 -25.01
rradius 123.662
rwrist -54.9529
rhand -43.0326 -12.1648
rfingers 7.12502
rthumb -15.8898 -41.5329
lclavicle 1.63003e-014 -4.54223e-014
lhumerus -8.61195 -11.3651 65.7674
lradius 65.7123
lwrist 29.3823
lhand -18.2645 10.137
lfingers 7.12502
lthumb 8.01506 39.965
rfemur -54.1971 -8.52141 24.3356
rtibia 64.0371
rfoot -27.1111 -19.2444
rtoes -3.79047
lfemur -52.8748 11.2498 -25.3291
ltibia 54.2913
lfoot -15.1805 1.04887
ltoes 1.88759
2760
root 7.42755 15.2875 -20.8638 197.792 -62.072 -182.956
lowerback 35.0174 -0.133568 2.9442
upperback 15.3446 -2.02735 -1.8531
thorax -0.951374 -1.77383 -2.83559
lowerneck -3.13007 2.64654 4.09219
upperneck -33.4407 1.07927 -2.50772
head -10.0914 -0.938122 -1.48603
rclavicle 1.11319e-014 3.00165e-014
rhumerus 21.9876 23.7733 -25.0719
rradius 123.614
rwrist -54.9555
rhand -43.0267 -12.2105
rfingers 7.12502
rthumb -15.8841 -41.579
lclavicle 1.11319e-014 3.00165e-014
lhumerus -8.62165 -11.4637 65.7244
lradius 65.7198
lwrist 29.369
lhand -18.2928 10.1293
lfingers 7.12502
lthumb 7.98773 39.9583
rfemur -54.1562 -8.6502 24.3707
rtibia 64.0364
rfoot -27.0777 -19.1496
rtoes -3.79181
lfemur -52.8211 11.2181 -25.3151
ltibia 54.2846
lfoot -15.2377 1.09002
ltoes 2.01584
